# xmcd
#
# Track frame offsets: 
#        150
#        25358
#        45813
#        63091
#        85231
#        106360
#        120314
#        136994
#        160437
#        186129
#        210191
#        233754
#
# Disc length: 3442 seconds
#
# Revision: 0
# Processed by: cddbd v1.5.2PL0 Copyright (c) Steve Scherf et al.
# Submitted via: ExactAudioCopyFreeDBPlugin 1.0
#
DISCID=8e0d700c
DTITLE=上間綾乃 - 唄者
DYEAR=1900
DGENRE=JPop
TTITLE0=安里屋ユンタ
TTITLE1=綾蝶
TTITLE2=遠音
TTITLE3=みちあかり
TTITLE4=太陽 月ぬ光 ～ アメイジング･グレイス
TTITLE5=ハリクヤマク
TTITLE6=悲しくてやりきれない
TTITLE7=声なき命
TTITLE8=イツクシミ
TTITLE9=夢の国
TTITLE10=夢しじく
TTITLE11=声なき命 (つらね入り)
EXTD=
EXTT0=
EXTT1=
EXTT2=
EXTT3=
EXTT4=
EXTT5=
EXTT6=
EXTT7=
EXTT8=
EXTT9=
EXTT10=
EXTT11=
PLAYORDER=
